<svg width="1500" height="1500" viewBox="0 0 1500 1500" fill="none" xmlns="http://www.w3.org/2000/svg">
<rect width="1500" height="1500" fill="white"/>
<g filter="url(#filter0_d_231_96)">
<path d="M1119.64 351.444C1119.67 351.447 1119.7 351.451 1119.73 351.456C1165.89 373.435 1114.17 456.75 975.999 500.279C830.549 546.101 831.923 626.751 843.106 693.417C905.109 668.417 1020.22 627.604 1125.44 711.608C1226.23 792.077 1105.2 537.791 1213.86 539.607C1244.42 490.539 1321.23 444.506 1384 652.909C1396.9 621.194 1399.46 539.084 1323.88 471.064C1264.52 417.645 1495.08 385.664 1213.86 239.251C1023.88 153.237 975.999 326.709 1119.64 351.444Z" fill="url(#paint0_linear_231_96)"/>
<path d="M1384 652.909C1326.72 606.124 1284.92 540.794 1213.86 539.607C1244.42 490.539 1321.23 444.506 1384 652.909Z" fill="url(#paint1_linear_231_96)"/>
<path d="M989.45 467.205C991.166 440.831 1020.11 386.332 1122.17 379.328C1105.22 421.011 1026.63 455.28 989.45 467.205Z" fill="url(#paint2_linear_231_96)"/>
<path d="M1213.86 239.251C1203.85 206.001 1137.96 214.668 1125.44 158.418C1099.5 41.9688 919.666 142.265 910.674 239.251C900.262 351.559 1000.55 395.341 1119.64 351.444C975.999 326.709 1023.88 153.237 1213.86 239.251Z" fill="url(#paint3_linear_231_96)"/>
<path d="M843.106 693.417C811.593 634.512 742.793 477.167 975.999 500.279C830.549 546.101 831.923 626.751 843.106 693.417Z" fill="url(#paint4_linear_231_96)"/>
<path d="M530.617 711.608C569.906 788.51 685.89 777.073 770.349 685.5C550.956 793.372 542.907 673.314 572.791 600.729C575.765 515.237 498.614 608.165 406.51 487.433C328.92 330.461 444.229 330.954 511.582 350.821C517.255 304.332 534.482 263.007 575.513 268.755C573.701 223.956 602.548 180.91 764.098 148.099C432.217 104.175 344.377 384.589 345.796 395.341C293.417 408.341 174.402 485.346 116.791 689.365C123.108 674.495 244.51 517.191 396.889 599.251C476.419 608.998 508.287 667.9 530.617 711.608Z" fill="url(#paint5_linear_231_96)"/>
<path d="M511.582 434.605C632.731 388.975 577.885 327.364 575.513 268.755C534.482 263.007 517.255 304.332 511.582 350.821C507.995 380.216 509.027 411.676 511.582 434.605Z" fill="url(#paint6_linear_231_96)"/>
<path d="M406.51 487.433C365.235 382.532 483.598 291.726 511.582 434.605C509.027 411.676 507.995 380.216 511.582 350.821C444.229 330.954 328.92 330.461 406.51 487.433Z" fill="url(#paint7_linear_231_96)"/>
<path d="M345.796 395.341C185.64 382.145 109.342 572.431 116.533 690.28C116.525 690.096 116.611 689.788 116.791 689.365C174.402 485.346 293.417 408.341 345.796 395.341Z" fill="url(#paint8_linear_231_96)"/>
<path d="M116.533 690.28C248.605 612.797 336.491 591.848 396.889 599.251C244.51 517.191 123.108 674.495 116.791 689.365C116.705 689.669 116.619 689.974 116.533 690.28Z" fill="#09A0B7"/>
<path d="M770.349 685.5C693.94 518.417 825.444 453.341 843.106 454.25C545.5 312.166 646.789 473.87 572.791 600.729C542.907 673.314 550.956 793.372 770.349 685.5Z" fill="url(#paint9_linear_231_96)"/>
<path d="M345.796 395.341C309.441 148.098 555.066 103.944 764.098 148.099C432.217 104.175 344.377 384.589 345.796 395.341Z" fill="url(#paint10_linear_231_96)"/>
<path d="M843.106 879.231C772.834 1001.17 697.253 1219.05 957.109 1115.09C1216.97 1011.13 1259.52 1079.22 1248.32 1126.26C1298.63 1076.66 1221.79 963.364 964.498 1056.41C758.662 1130.85 827.082 942.089 887.022 838.402C873.051 850.629 858.576 864.289 843.106 879.231Z" fill="url(#paint11_linear_231_96)"/>
<path d="M309.41 895.564C359.191 1155.57 616.667 1565.73 1248.32 1126.26C957.574 1437.78 351.687 1601.84 309.41 895.564Z" fill="url(#paint12_linear_231_96)"/>
<path d="M309.41 895.564C357.537 1020.6 516.65 1180.39 731.254 985.971C775.524 945.865 811.403 909.855 843.106 879.231C858.576 864.289 873.051 850.629 887.022 838.402C960.655 773.963 1020.28 749.324 1137.61 786.476C1001.91 668.831 930.76 699.128 687.689 930.882C493.232 1116.29 354.479 984.588 309.41 895.564Z" fill="url(#paint13_linear_231_96)"/>
<path d="M541.644 1139.17C557.913 1143.66 626.583 1160.59 700.15 1091.44C698.313 1125.7 674.73 1185.31 802.867 1198.82C717.785 1230.58 665.456 1174.31 679.724 1139.63C645.53 1175.27 609.88 1183.14 541.644 1139.17Z" fill="url(#paint14_linear_231_96)"/>
<path d="M479.424 876.879C371.736 754.497 184.657 772.125 109 796.236C161.567 746.873 339.901 642.281 479.424 796.236C591.042 919.401 753.868 799.154 817.407 722.584C752.23 825.709 587.112 999.262 479.424 876.879Z" fill="url(#paint15_linear_231_96)"/>
<path d="M1190.35 939.975C1247.9 884.562 1306.58 927.804 1322.67 942.775C1291.81 897.748 1208.58 834.151 1122.51 939.975C1112.01 914.16 1097.21 877.269 1125.44 855.331C1038.24 913.711 1085.07 1041.34 1190.35 939.975Z" fill="url(#paint16_linear_231_96)"/>
<path d="M1322.67 942.775C1315.77 928.192 1253.08 788.164 1137.96 847.932C1133.52 850.242 1129.34 852.717 1125.44 855.331C1097.21 877.269 1112.01 914.16 1122.51 939.975C1208.58 834.151 1291.81 897.748 1322.67 942.775Z" fill="url(#paint17_linear_231_96)"/>
<path d="M727.107 341.334C743.073 299.251 898.241 358.349 878.03 402.543C862.769 435.917 712.406 380.084 727.107 341.334Z" fill="url(#paint18_linear_231_96)"/>
<path d="M1204.47 354.162C1206.18 327.788 1290.1 362.584 1311.3 396.246C1239.01 411.246 1281.2 350.084 1204.47 354.162Z" fill="url(#paint19_linear_231_96)"/>
</g>
<defs>
<filter id="filter0_d_231_96" x="74" y="77" width="1352" height="1357" filterUnits="userSpaceOnUse" color-interpolation-filters="sRGB">
<feFlood flood-opacity="0" result="BackgroundImageFix"/>
<feColorMatrix in="SourceAlpha" type="matrix" values="0 0 0 0 0 0 0 0 0 0 0 0 0 0 0 0 0 0 127 0" result="hardAlpha"/>
<feOffset dy="6"/>
<feGaussianBlur stdDeviation="17.5"/>
<feComposite in2="hardAlpha" operator="out"/>
<feColorMatrix type="matrix" values="0 0 0 0 0 0 0 0 0 0 0 0 0 0 0 0 0 0 0.5 0"/>
<feBlend mode="normal" in2="BackgroundImageFix" result="effect1_dropShadow_231_96"/>
<feBlend mode="normal" in="SourceGraphic" in2="effect1_dropShadow_231_96" result="shape"/>
</filter>
<linearGradient id="paint0_linear_231_96" x1="750" y1="106" x2="750" y2="1393" gradientUnits="userSpaceOnUse">
<stop stop-color="#FFDF11"/>
<stop offset="1" stop-color="#59480C"/>
</linearGradient>
<linearGradient id="paint1_linear_231_96" x1="1444.68" y1="402.569" x2="1033.29" y2="726.786" gradientUnits="userSpaceOnUse">
<stop stop-color="#FFDF11"/>
<stop offset="0.418267" stop-color="#947815"/>
</linearGradient>
<linearGradient id="paint2_linear_231_96" x1="1186.76" y1="821.154" x2="1205.56" y2="957.61" gradientUnits="userSpaceOnUse">
<stop stop-color="#FD8A07"/>
<stop offset="1" stop-color="#975204"/>
</linearGradient>
<linearGradient id="paint3_linear_231_96" x1="968.746" y1="-10.8636" x2="145.627" y2="1294.14" gradientUnits="userSpaceOnUse">
<stop offset="0.0817205" stop-color="#896F13"/>
<stop offset="0.25961" stop-color="#FFDF11"/>
</linearGradient>
<linearGradient id="paint4_linear_231_96" x1="968.746" y1="-10.8636" x2="145.627" y2="1294.14" gradientUnits="userSpaceOnUse">
<stop offset="0.1923" stop-color="#FFDF11"/>
<stop offset="0.423075" stop-color="#876E16"/>
</linearGradient>
<linearGradient id="paint5_linear_231_96" x1="544.146" y1="386.161" x2="794.034" y2="1381.95" gradientUnits="userSpaceOnUse">
<stop stop-color="#09A0B7"/>
<stop offset="0.187492" stop-color="#076674"/>
</linearGradient>
<linearGradient id="paint6_linear_231_96" x1="544.146" y1="386.161" x2="794.034" y2="1381.95" gradientUnits="userSpaceOnUse">
<stop stop-color="#076674"/>
<stop offset="0.424107" stop-color="#09A0B7"/>
</linearGradient>
<linearGradient id="paint7_linear_231_96" x1="750" y1="106" x2="750" y2="1393" gradientUnits="userSpaceOnUse">
<stop stop-color="#076674"/>
<stop offset="0.403844" stop-color="#09A0B7"/>
</linearGradient>
<linearGradient id="paint8_linear_231_96" x1="544.146" y1="386.161" x2="794.034" y2="1381.95" gradientUnits="userSpaceOnUse">
<stop offset="0.0384625" stop-color="#076674"/>
<stop offset="0.173081" stop-color="#09A0B7"/>
</linearGradient>
<linearGradient id="paint9_linear_231_96" x1="750" y1="106" x2="750" y2="1393" gradientUnits="userSpaceOnUse">
<stop stop-color="#09A0B7"/>
<stop offset="0.682697" stop-color="#076674"/>
</linearGradient>
<linearGradient id="paint10_linear_231_96" x1="750" y1="106" x2="750" y2="1393" gradientUnits="userSpaceOnUse">
<stop stop-color="#09A0B7"/>
<stop offset="0.182697" stop-color="#076674"/>
</linearGradient>
<linearGradient id="paint11_linear_231_96" x1="750" y1="106" x2="750" y2="1393" gradientUnits="userSpaceOnUse">
<stop offset="0.591349" stop-color="#9F8AC7"/>
<stop offset="0.879817" stop-color="#3F1690"/>
</linearGradient>
<linearGradient id="paint12_linear_231_96" x1="750" y1="106" x2="750" y2="1393" gradientUnits="userSpaceOnUse">
<stop offset="0.788469" stop-color="#3F1690"/>
<stop offset="1" stop-color="#9F8AC7"/>
</linearGradient>
<linearGradient id="paint13_linear_231_96" x1="750" y1="106" x2="750" y2="1393" gradientUnits="userSpaceOnUse">
<stop offset="0.451922" stop-color="#9F8AC7"/>
<stop offset="0.788469" stop-color="#3F1690"/>
</linearGradient>
<linearGradient id="paint14_linear_231_96" x1="664.444" y1="768.525" x2="552.251" y2="1112.15" gradientUnits="userSpaceOnUse">
<stop offset="0.254827" stop-color="#3F1690"/>
<stop offset="0.725993" stop-color="#9F8AC7"/>
</linearGradient>
<linearGradient id="paint15_linear_231_96" x1="109" y1="749.5" x2="1391" y2="749.5" gradientUnits="userSpaceOnUse">
<stop stop-color="#9F8AC7"/>
<stop offset="1" stop-color="#3F1690"/>
</linearGradient>
<linearGradient id="paint16_linear_231_96" x1="1186.76" y1="833.152" x2="1204.79" y2="966.848" gradientUnits="userSpaceOnUse">
<stop offset="0.355766" stop-color="#6A3674"/>
<stop offset="0.80775" stop-color="#B25AC2"/>
</linearGradient>
<linearGradient id="paint17_linear_231_96" x1="750" y1="106" x2="750" y2="1393" gradientUnits="userSpaceOnUse">
<stop stop-color="#6A3674"/>
<stop offset="0.730825" stop-color="#B25AC2"/>
</linearGradient>
<linearGradient id="paint18_linear_231_96" x1="1186.76" y1="821.154" x2="1205.56" y2="957.61" gradientUnits="userSpaceOnUse">
<stop stop-color="#FD8A07"/>
<stop offset="1" stop-color="#975204"/>
</linearGradient>
<linearGradient id="paint19_linear_231_96" x1="1186.76" y1="821.154" x2="1205.56" y2="957.61" gradientUnits="userSpaceOnUse">
<stop stop-color="white"/>
<stop offset="1" stop-color="#975204"/>
</linearGradient>
</defs>
</svg>
